<?xml version="1.0" encoding="utf-8"?>
<svg viewBox="0 -4.527 4074.698 310.527" xmlns="http://www.w3.org/2000/svg">
  <path fill="#f8faff" fill-rule="evenodd" clip-rule="evenodd" d="M -0.001 -4.528 L 4074.699 -4.527 L 4074.36 199.917 C 3867.46 147.177 3660.56 147.177 3453.66 199.917 C 3317.2 234.701 3185.82 176.874 3052.82 118.335 C 2984.16 88.115 2915.07 57.706 2844.62 39.749 C 2637.73 -12.991 2430.83 -12.991 2223.93 39.749 C 2162.03 55.526 2103.87 78.642 2046.11 101.6 C 1910.79 155.384 1777.65 208.301 1603.75 163.973 C 1396.85 111.232 1177.77 109.411 970.869 162.151 C 763.97 214.891 557.071 214.891 350.172 162.151 C 233.486 132.407 116.801 119.438 0.116 123.243 L -0.001 -4.528 Z"/>
</svg>
