<?xml version="1.0" encoding="utf-8"?>
<svg viewBox="0 0 477.412 162.232" xmlns="http://www.w3.org/2000/svg">
  <defs>
    <style>
      .cls-1{fill:#56554e;}
      .cls-2{fill:#bbd11c;}
      .cls-3{fill:#0d0d0d;}
      .cls-4{fill:#f9dbaa;}
      .cls-5{fill:#588c14;}
      .txt{fill:#200952;}
    </style>
  </defs>
  <g>
    <g>
      <g>
        <path class="cls-1" d="M172.35,153.33c3.8-18.57,3.22-61,.66-75.13-2-10.84-9.94-61.53-61.28-66.6a2.4,2.4,0,0,0-2.51,1.54,28.9,28.9,0,0,1-1.73,3.75c-2.57,4.65-9,14.76-12.39,19.41a3.9,3.9,0,0,1-4.55,1.12,93.71,93.71,0,0,1-15.7-11,25.55,25.55,0,0,1-6.15-7.3,2.41,2.41,0,0,0-3.07-1.11C23.47,35.68,14.48,89.42,17.53,153.33Z"/>
      </g>
      <path id="heart" class="cls-2" d="M103.86,4.7A7,7,0,0,0,95.53.2c-3.3.76-5.41,3.25-6.85,6.11-3-1.31-6.25-2.16-9.48-1.23-3.72,1.06-6.65,4.1-6.58,8.12s2.73,7.27,5.67,9.83a69.33,69.33,0,0,0,11.51,8,2.87,2.87,0,0,0,3.35-.82c2.51-3.41,7.19-10.82,9.08-14.24S105.21,8.59,103.86,4.7Z"/>
      <path id="line" class="cls-3" d="M185.11,162H4.33a4.33,4.33,0,1,1,0-8.66H185.11a4.33,4.33,0,1,1,0,8.66Z"/>
      <path class="cls-3" d="M75.09,59c-3.69,0-3.7,5.73,0,5.73S78.78,59,75.09,59Z"/>
      <path class="cls-3" d="M89.05,63.09c-2-2.61-4.71-4.08-9.22-4.59A.77.77,0,0,0,79,59.67a4,4,0,0,1-.3,4.48c-.79.94.73,1.79,1.15,2.11a2.89,2.89,0,0,1,.94,3.44,5.29,5.29,0,0,1-1,1.71c-.65.58-1.28,1.18-1.87,1.81l-.72.62c-2.95,2.59-5,6.06-4.62,10.21a15.3,15.3,0,0,0,1.75,6c.4.84,1.62.36,1.65-.45a10.11,10.11,0,0,1,2.55-6.76c1.8-2.12,4.43-3.24,6.64-4.84a13.8,13.8,0,0,0,5.11-6.45A9,9,0,0,0,89.05,63.09Z"/>
      <path class="cls-3" d="M67.48,68.42c2.71,3,3.7,6.89,4.14,10.79a14.33,14.33,0,0,0,2.15-7.61c0-7.61-5.8-13.79-12.95-13.79-5.1,0-9.14,3.15-11.31,7.71a21.8,21.8,0,0,1,5.55-1.06C59.43,64.19,64.4,65.05,67.48,68.42Z"/>
      <path class="cls-4" d="M69.08,73.65a12.73,12.73,0,0,0-3-4.78A10.77,10.77,0,0,0,60.7,66.2a20.71,20.71,0,0,0-11.86.94,19,19,0,0,0-1,4.46c-.86,9.12,5.8,13.79,13,13.79a12.58,12.58,0,0,0,9.63-4.57A26.92,26.92,0,0,0,69.08,73.65Zm-11.27-.58a.88.88,0,0,1,0-1.76A.88.88,0,0,1,57.81,73.07Zm7,1.53a.75.75,0,0,1-.47.47.65.65,0,0,1-.34.07h-.08a.89.89,0,0,1-.45-.12l-.17-.13a.86.86,0,0,1-.23-.39l0-.24a.88.88,0,0,1,.26-.62.57.57,0,0,1,.28-.18.66.66,0,0,1,.34-.08H64a.89.89,0,0,1,.45.12l.18.14a.84.84,0,0,1,.22.39l0,.23A.65.65,0,0,1,64.83,74.6Z"/>
      <path class="cls-5" d="M57.78,153.33c1.79-9.06,6.37-31.07,6.47-31.47,4.12-15.35,2.59-20.35,3.26-28.29a49.55,49.55,0,0,1,1.28-6.49.86.86,0,0,0-1.11-1,25.4,25.4,0,0,1-11.62.62c-3-.56-6.86-3.55-8.62-6.87-.25-.47-.87-.15-1.28.18a45.74,45.74,0,0,0-9.49,11.3c-5.13,8.73-10.23,25.23-11.42,29.55a103.17,103.17,0,0,0-4.64,23.44,67.86,67.86,0,0,0,0,9Z"/>
      <path class="cls-3" d="M89.66,91.49a15.34,15.34,0,0,1,5.09,3.59c-.9-4.94-4.24-8.51-9.19-8.51-3.8,0-7.24,2.73-8.8,6.29a21.29,21.29,0,0,1,3.45-1.71A12.86,12.86,0,0,1,89.66,91.49Z"/>
      <path class="cls-4" d="M86.66,91.94a11.25,11.25,0,0,0-5.64.32,23.75,23.75,0,0,0-4.88,2.52,9.59,9.59,0,0,0-.29,2.33c0,5.33,4.51,8.94,9.68,8.94a9.47,9.47,0,0,0,9.31-8.87A14,14,0,0,0,86.66,91.94Zm-2,3.85a.59.59,0,0,1-.18.29.75.75,0,0,1-.28.18.67.67,0,0,1-.34.07H83.8a.89.89,0,0,1-.45-.12l-.18-.13a1,1,0,0,1-.23-.39l0-.24a.68.68,0,0,1,.08-.34.64.64,0,0,1,.18-.28.59.59,0,0,1,.29-.18.63.63,0,0,1,.34-.08h.08a.83.83,0,0,1,.44.12l.18.14a.86.86,0,0,1,.23.39l0,.23A.66.66,0,0,1,84.68,95.79Zm4.13.59a.59.59,0,0,1-.18.29l-.08.08a1,1,0,0,1-.39.23l-.24,0a.86.86,0,0,1-.44-.12l-.18-.14a.59.59,0,0,1-.18-.29.63.63,0,0,1-.08-.34.68.68,0,0,1,.08-.34.61.61,0,0,1,.18-.28l.08-.08a.86.86,0,0,1,.39-.23l.24,0a.86.86,0,0,1,.44.12l.18.14a.57.57,0,0,1,.18.28.68.68,0,0,1,.08.34A.66.66,0,0,1,88.81,96.38Z"/>
      <path class="cls-2" d="M91.69,153.33c.87-6.79,1.11-12.69.65-26.58,0,0-1.22-16.42-1.75-18.9a.72.72,0,0,0-.86-.55c-2,.47-8.55,1.79-13.14-3a.72.72,0,0,0-1,0c-5.58,5.52-7.37,14.58-8.32,17.48a231,231,0,0,0-7.15,31.58Z"/>
      <path class="cls-3" d="M108.09,83.07a6.27,6.27,0,0,0-4.28-1.42c-2.12,0-7.21,2.51-7.79,8.67-.08.87.06,4.5,1.61,4.45.36,0,2.33-4.83,4.5-4.44.48.09.79.6,1,1a15.28,15.28,0,0,1,.72,3.15c0,.35.15,1.16.72.9,3-1.38,4.33-.83,5.32-1,1.2-.25,1-2.7,1-4.11C110.94,87.44,110.62,84.8,108.09,83.07Z"/>
      <path class="cls-3" d="M116,99.31a8.86,8.86,0,0,0-7.12-3.56,8.68,8.68,0,0,0-8.78,8.38A25.8,25.8,0,0,1,108.4,100C110.66,99.27,113.59,98.6,116,99.31Z"/>
      <path class="cls-4" d="M117.09,101.33a5.45,5.45,0,0,0-3.79-1,20.14,20.14,0,0,0-5.13,1.08,23.21,23.21,0,0,0-8,4.31,8.81,8.81,0,0,0,17.45-1.42A8.27,8.27,0,0,0,117.09,101.33Zm-8.17,3.9a.78.78,0,0,1-.46.46.68.68,0,0,1-.34.08H108a.89.89,0,0,1-.45-.12l-.18-.14a1,1,0,0,1-.23-.39l0-.23a.66.66,0,0,1,.08-.34.68.68,0,0,1,.18-.29.79.79,0,0,1,.29-.18A.63.63,0,0,1,108,104h.08a.83.83,0,0,1,.44.12l.18.13a.86.86,0,0,1,.23.39l0,.24A.68.68,0,0,1,108.92,105.23Zm3.23-.75a.59.59,0,0,1-.18.29l-.08.08a1,1,0,0,1-.39.23l-.24,0a.86.86,0,0,1-.44-.12l-.18-.14a.61.61,0,0,1-.18-.28.68.68,0,0,1-.08-.34.63.63,0,0,1,.08-.34.59.59,0,0,1,.18-.29l.08-.08a.86.86,0,0,1,.39-.23l.24,0a.86.86,0,0,1,.44.12l.18.14a.57.57,0,0,1,.18.28.68.68,0,0,1,.08.34A.66.66,0,0,1,112.15,104.48Z"/>
      <path class="cls-2" d="M121.94,153.33c1.08-6.81,1.88-16.06,1.62-20.77-.52-9.33-3.78-20.24-4.94-22.33a.34.34,0,0,0-.56-.07,11.13,11.13,0,0,1-13.19,3.73c-.5-.24-.78,0-1,.49a144.55,144.55,0,0,0-7.63,22.19c-.94,4.13-2.09,11.93-2.58,16.76Z"/>
      <path class="cls-2" d="M133.6,77.12A76,76,0,0,0,130.44,67a1.39,1.39,0,0,0-1.89-.7,9.91,9.91,0,0,1-5.42,1.11,1.37,1.37,0,0,0-1.55.84c-.59,1.52-1.11,4.18-1.62,9.38v.1c-.18,5.49.13,11.34,1.77,14.82a6.3,6.3,0,0,0,5.58,3.61C133.31,95.64,135.07,83.18,133.6,77.12Z"/>
      <path class="cls-3" d="M116.53,50.57c-1-1.58-4-1-5.62.17s-3.93,4.08-2.14,7.87c.23.5.55,1.17.78,1.68a2.68,2.68,0,0,1,.08,2,1.31,1.31,0,0,0,.25,1.29c.48.46,1.06.18,1.49-.17a5,5,0,0,0,1.35-5.79c-.23-.54-1-1.07-.16-1.41.56-.22,1.55-.22,2-.67s.33-2.6,2.05-4.17C116.91,51.09,116.68,50.81,116.53,50.57Z"/>
      <path class="cls-4" d="M131.63,56.08a7.9,7.9,0,1,0-6.45,9.2A7.94,7.94,0,0,0,131.63,56.08Zm-8.61.61a.94.94,0,0,1-.13.44l-.13.18a.86.86,0,0,1-.39.23l-.24,0a.68.68,0,0,1-.34-.08.78.78,0,0,1-.46-.46.68.68,0,0,1-.08-.34V56.6a.88.88,0,0,1,.12-.44l.14-.18a1,1,0,0,1,.39-.23l.23,0a.66.66,0,0,1,.34.08.68.68,0,0,1,.29.18.79.79,0,0,1,.18.29.73.73,0,0,1,.08.33Zm3.31-.09a.86.86,0,0,1-.12.44l-.14.18a1,1,0,0,1-.38.23l-.24,0a.68.68,0,0,1-.34-.08.57.57,0,0,1-.28-.18.88.88,0,0,1-.26-.62v-.09a.86.86,0,0,1,.12-.44l.14-.18a.86.86,0,0,1,.39-.23l.23,0a.66.66,0,0,1,.34.08.57.57,0,0,1,.28.18.88.88,0,0,1,.26.62Z"/>
      <path class="cls-3" d="M120.37,40.51a30.82,30.82,0,0,1,20.85-7.7C137.48,28,131,24.94,125.33,26.67,118,28.92,114.55,36.51,116.17,44a6.66,6.66,0,0,0,.26.9,14.67,14.67,0,0,1,1.37-1.77A28.67,28.67,0,0,1,120.37,40.51Z"/>
      <path class="cls-4" d="M143.72,37.54a10,10,0,0,0-1.3-2.95,28.5,28.5,0,0,0-4.62.09,29,29,0,0,0-11.51,3.73A28.19,28.19,0,0,0,121.37,42a26.38,26.38,0,0,0-2.1,2.13c-.58.65-1.74,1.57-1.7,2.49,0,.4,1.15,1.34,1.61,1.76a1.33,1.33,0,0,0,1.4.2,12.59,12.59,0,0,1,3.51-.79c2.82-.09,7.66,2.31,9,6.53h0a.86.86,0,0,0,.93.62,13.06,13.06,0,0,0,2.08-.46C143.38,52.22,145.13,44.33,143.72,37.54Zm-16.26,6.25a.61.61,0,0,1-.18.28.57.57,0,0,1-.28.18.68.68,0,0,1-.34.08h-.09a.86.86,0,0,1-.44-.12l-.18-.14a1,1,0,0,1-.23-.39l0-.23a.63.63,0,0,1,.08-.34.59.59,0,0,1,.18-.29.64.64,0,0,1,.28-.18.68.68,0,0,1,.34-.08h.09a.86.86,0,0,1,.44.12l.18.14a.86.86,0,0,1,.23.39l0,.24A.68.68,0,0,1,127.46,43.79ZM134,40.67a.78.78,0,0,1-.46.46.68.68,0,0,1-.34.08h-.09a.86.86,0,0,1-.44-.12l-.18-.14a1,1,0,0,1-.23-.39l0-.23a.66.66,0,0,1,.08-.34.59.59,0,0,1,.18-.29.75.75,0,0,1,.28-.18.81.81,0,0,1,.34-.08h.09a1,1,0,0,1,.44.13l.18.13a.86.86,0,0,1,.23.39l0,.24A.68.68,0,0,1,134,40.67Z"/>
      <path class="cls-5" d="M124,153.33h45a121.09,121.09,0,0,0,2.18-17,211.7,211.7,0,0,0-1.47-37c-5.64-36.32-18.52-56.27-22-58-.62-.3-.9.35-.94.6-2.11,14.2-11,18.9-13.42,21.11a2.78,2.78,0,0,0-.89,2.94c2.11,5.62,5.51,11.84,2.45,24.73a.11.11,0,0,0,.17.12,8.44,8.44,0,0,1,3.42-1,5.34,5.34,0,0,1,2.73.44,4.6,4.6,0,0,1,1.9,2,8.7,8.7,0,0,1,.52,5.2,19.2,19.2,0,0,1-1.51,5.36,24.44,24.44,0,0,1-3.16,4.78c-.44.56-1.19-.76-.76-1.31l2.49-4.31a14.89,14.89,0,0,0,1.42-5.09,5.1,5.1,0,0,0-.79-3.84,3.62,3.62,0,0,0-3.1-1.5c-1.41,0-3.21.51-3.92,1.46-.18.25-1.6,2.19-1.75,2.44-1.27,2-3.52,3.4-4.6,6-1.52,3.74-3.43,11-2.44,27.36,0,.17.18,1.57.19,2.07a99.07,99.07,0,0,1-.48,11.08C124.85,146.15,124.35,150.33,124,153.33Z"/>
      <path class="txt" d="M 227.949 51.506 L 227.949 61.649 L 221.106 61.649 L 221.106 57.302 L 203.304 57.302 L 203.304 35.129 L 210.653 35.129 L 210.653 51.506 L 217.69 51.506 L 217.69 35.129 L 225.039 35.129 L 225.039 51.506 L 227.949 51.506 Z" style=""/>
      <path class="txt" d="M 249.217 51.661 L 249.217 57.302 L 230.769 57.302 L 230.769 35.129 L 248.803 35.129 L 248.803 40.769 L 238.13 40.769 L 238.13 43.356 L 247.508 43.356 L 247.508 48.738 L 238.13 48.738 L 238.13 51.648 L 249.217 51.661 Z" style=""/>
      <path class="txt" d="M 274.442 35.129 L 274.442 57.302 L 266.965 57.302 L 266.965 49.126 L 260.057 49.126 L 260.057 57.302 L 252.58 57.302 L 252.58 35.129 L 260.057 35.129 L 260.057 42.981 L 266.965 42.981 L 266.965 35.129 L 274.442 35.129 Z" style=""/>
      <path class="txt" d="M 297.573 40.873 L 291.105 40.873 L 291.105 57.302 L 283.757 57.302 L 283.757 40.873 L 277.288 40.873 L 277.288 35.129 L 297.638 35.129 L 297.573 40.873 Z" style=""/>
      <path class="txt" d="M 316.396 36.138 C 317.835 36.737 319.061 37.756 319.914 39.062 C 322.687 43.225 320.998 48.885 316.396 50.847 C 314.7 51.555 312.876 51.898 311.04 51.856 L 307.845 51.856 L 307.845 57.302 L 300.367 57.302 L 300.367 35.129 L 311.04 35.129 C 312.876 35.086 314.7 35.43 316.396 36.138 Z M 312.851 45.414 C 313.896 44.331 313.896 42.615 312.851 41.532 C 312.197 41.033 311.381 40.794 310.561 40.86 L 307.845 40.86 L 307.845 46.034 L 310.561 46.034 C 311.374 46.115 312.19 45.893 312.851 45.414 Z" style=""/>
      <path class="txt" d="M 208.117 94.365 C 206.291 93.428 204.76 92.004 203.693 90.251 C 201.573 86.525 201.573 81.959 203.693 78.233 C 204.76 76.48 206.291 75.057 208.117 74.119 C 210.077 73.116 212.254 72.61 214.456 72.645 C 216.438 72.615 218.404 73.002 220.226 73.783 C 221.897 74.511 223.356 75.65 224.469 77.094 L 219.747 81.312 C 218.637 79.723 216.834 78.761 214.896 78.724 C 213.484 78.666 212.115 79.211 211.132 80.225 C 209.24 82.589 209.24 85.948 211.132 88.31 C 212.111 89.33 213.483 89.878 214.896 89.811 C 216.834 89.775 218.637 88.813 219.747 87.224 L 224.469 91.402 C 223.373 92.834 221.936 93.968 220.29 94.701 C 218.47 95.487 216.503 95.876 214.521 95.839 C 212.297 95.885 210.098 95.378 208.117 94.365 Z" style=""/>
      <path class="txt" d="M 231.338 94.352 C 223.556 90.323 223.053 79.38 230.433 74.654 C 230.726 74.467 231.028 74.293 231.338 74.132 C 235.4 72.15 240.149 72.15 244.21 74.132 C 251.992 78.161 252.495 89.103 245.116 93.829 C 244.821 94.017 244.52 94.191 244.21 94.352 C 240.149 96.335 235.4 96.335 231.338 94.352 Z M 240.29 89.177 C 241.058 88.71 241.681 88.038 242.088 87.237 C 242.969 85.382 242.969 83.231 242.088 81.377 C 241.677 80.582 241.055 79.915 240.29 79.449 C 239.535 78.989 238.665 78.751 237.78 78.764 C 236.892 78.753 236.018 78.991 235.258 79.449 C 234.525 79.904 233.926 80.548 233.524 81.312 C 232.627 83.162 232.627 85.322 233.524 87.172 C 234.339 88.795 236.016 89.802 237.833 89.76 C 238.695 89.773 239.546 89.549 240.29 89.113 L 240.29 89.177 Z" style=""/>
      <path class="txt" d="M 273.2 85.685 C 273.878 86.618 274.225 87.752 274.184 88.906 C 274.241 90.772 273.356 92.54 271.83 93.615 C 269.841 94.878 267.505 95.48 265.155 95.335 L 253.305 95.335 L 253.305 73.214 L 264.572 73.214 C 266.801 73.086 269.02 73.617 270.95 74.74 C 272.413 75.661 273.276 77.293 273.214 79.023 C 273.236 80 272.98 80.965 272.476 81.803 C 271.953 82.628 271.226 83.305 270.367 83.77 C 271.482 84.11 272.469 84.778 273.2 85.685 Z M 260.652 81.674 L 263.822 81.674 C 265.115 81.674 265.658 81.144 265.658 80.057 C 265.658 78.97 265.051 78.376 263.822 78.376 L 260.691 78.376 L 260.652 81.674 Z M 266.642 88.336 C 266.642 87.185 266.033 86.616 264.805 86.616 L 260.691 86.616 L 260.691 90.108 L 264.843 90.108 C 266.033 90.108 266.642 89.514 266.642 88.336 Z" style=""/>
      <path class="txt" d="M 293.2 74.171 C 298.856 76.57 299.795 84.194 294.888 87.892 C 294.367 88.285 293.801 88.613 293.2 88.867 C 291.508 89.584 289.683 89.932 287.844 89.889 L 284.649 89.889 L 284.649 95.335 L 277.172 95.335 L 277.172 73.214 L 287.857 73.214 C 289.687 73.152 291.507 73.477 293.2 74.171 Z M 289.655 83.433 C 290.687 82.346 290.687 80.64 289.655 79.553 C 289.003 79.049 288.188 78.805 287.366 78.867 L 284.649 78.867 L 284.649 84.042 L 287.366 84.042 C 288.178 84.126 288.992 83.91 289.655 83.433 Z" style=""/>
      <path class="txt" d="M 318.97 89.695 L 318.97 95.335 L 300.522 95.335 L 300.522 73.214 L 318.555 73.214 L 318.555 78.854 L 307.87 78.854 L 307.87 81.442 L 317.249 81.442 L 317.249 86.836 L 307.87 86.836 L 307.87 89.747 L 318.97 89.695 Z" style=""/>
      <path class="txt" d="M 342.19 95.335 L 342.126 85.231 L 337.313 93.343 L 334.014 93.343 L 329.203 85.581 L 329.203 95.335 L 322.384 95.335 L 322.384 73.214 L 328.543 73.214 L 335.723 84.973 L 342.734 73.214 L 348.879 73.214 L 348.943 95.4 L 342.19 95.335 Z" style=""/>
      <path class="txt" d="M 371.596 89.695 L 371.596 95.335 L 353.16 95.335 L 353.16 73.214 L 371.195 73.214 L 371.195 78.854 L 360.509 78.854 L 360.509 81.442 L 369.887 81.442 L 369.887 86.836 L 360.509 86.836 L 360.509 89.747 L 371.596 89.695 Z" style=""/>
      <path class="txt" d="M 396.821 73.214 L 396.821 95.335 L 389.344 95.335 L 389.344 87.159 L 382.435 87.159 L 382.435 95.335 L 374.959 95.335 L 374.959 73.214 L 382.435 73.214 L 382.435 80.976 L 389.344 80.976 L 389.344 73.214 L 396.821 73.214 Z" style=""/>
      <path class="txt" d="M 422.94 73.214 L 422.94 95.335 L 415.463 95.335 L 415.463 87.159 L 408.555 87.159 L 408.555 95.335 L 401.077 95.335 L 401.077 73.214 L 408.555 73.214 L 408.555 80.976 L 415.463 80.976 L 415.463 73.214 L 422.94 73.214 Z" style=""/>
      <path class="txt" d="M 432.035 94.352 C 424.252 90.345 423.726 79.416 431.086 74.68 C 431.394 74.482 431.71 74.3 432.035 74.132 C 436.09 72.148 440.837 72.148 444.893 74.132 C 452.675 78.139 453.202 89.068 445.841 93.804 C 445.533 94.002 445.218 94.185 444.893 94.352 C 440.837 96.336 436.09 96.336 432.035 94.352 Z M 440.986 89.177 C 441.751 88.709 442.369 88.037 442.772 87.237 C 443.669 85.386 443.669 83.226 442.772 81.377 C 442.365 80.582 441.748 79.916 440.986 79.449 C 439.429 78.535 437.498 78.535 435.941 79.449 C 435.18 79.916 434.563 80.582 434.156 81.377 C 433.275 83.231 433.275 85.382 434.156 87.237 C 435.466 89.71 438.572 90.592 440.986 89.177 Z" style=""/>
      <path class="txt" d="M 453.988 73.214 L 461.348 73.214 L 461.348 84.753 L 468.968 73.214 L 476.005 73.214 L 476.005 95.335 L 468.657 95.335 L 468.657 83.834 L 461.051 95.335 L 453.974 95.335 L 453.988 73.214 Z M 459.692 70.627 C 458.558 69.582 457.963 68.076 458.076 66.539 L 463.056 66.539 C 463.005 67.09 463.157 67.643 463.483 68.091 C 463.895 68.451 464.438 68.624 464.984 68.57 C 465.54 68.623 466.094 68.451 466.523 68.091 C 466.873 67.654 467.041 67.097 466.988 66.539 L 471.956 66.539 C 472.027 68.055 471.403 69.521 470.262 70.523 C 468.681 71.54 466.803 71.997 464.931 71.816 C 463.09 71.986 461.244 71.53 459.692 70.523 L 459.692 70.627 Z" style=""/>
      <path class="txt" d="M 224.753 111.182 L 224.753 133.368 L 217.406 133.368 L 217.406 116.978 L 210.653 116.978 L 210.653 133.368 L 203.304 133.368 L 203.304 111.182 L 224.753 111.182 Z" style=""/>
      <path class="txt" d="M 247.444 127.728 L 247.444 133.368 L 228.997 133.368 L 228.997 111.182 L 247.03 111.182 L 247.03 116.822 L 236.357 116.822 L 236.357 119.41 L 245.737 119.41 L 245.737 124.792 L 236.357 124.792 L 236.357 127.715 L 247.444 127.728 Z" style=""/>
      <path class="txt" d="M 275.672 127.546 L 275.672 137.689 L 268.828 137.689 L 268.828 133.368 L 256.215 133.368 L 256.215 137.702 L 249.372 137.702 L 249.372 127.546 L 250.006 127.546 C 251.299 127.546 252.205 126.732 252.735 125.114 C 253.373 122.769 253.712 120.352 253.744 117.922 L 254.003 111.169 L 272.761 111.169 L 272.761 127.546 L 275.672 127.546 Z M 259.734 123.99 C 259.564 125.235 259.169 126.441 258.569 127.546 L 265.413 127.546 L 265.413 116.965 L 260.238 116.965 L 260.238 118.556 C 260.192 120.38 260.022 122.2 259.734 124.003 L 259.734 123.99 Z" style=""/>
      <path class="txt" d="M 278.492 111.182 L 285.853 111.182 L 285.853 122.722 L 293.485 111.182 L 300.522 111.182 L 300.522 133.368 L 293.175 133.368 L 293.175 121.855 L 285.567 133.368 L 278.492 133.368 L 278.492 111.182 Z" style=""/>
      <path class="txt" d="M 320.418 129.501 L 311.997 129.501 L 310.51 133.381 L 302.903 133.381 L 312.592 111.195 L 319.94 111.195 L 329.642 133.381 L 321.881 133.381 L 320.418 129.501 Z M 318.362 124.105 L 316.214 118.492 L 314.054 124.067 L 318.362 124.105 Z" style=""/>
      <path class="txt" d="M 349.797 116.978 L 343.329 116.978 L 343.329 133.368 L 335.981 133.368 L 335.981 116.978 L 329.513 116.978 L 329.513 111.182 L 349.862 111.182 L 349.797 116.978 Z" style=""/>
      <path class="txt" d="M 368.619 112.191 C 374.282 114.605 375.207 122.242 370.286 125.938 C 369.771 126.325 369.212 126.647 368.619 126.9 C 366.925 127.608 365.1 127.952 363.264 127.909 L 360.068 127.909 L 360.068 133.368 L 352.539 133.368 L 352.539 111.182 L 363.212 111.182 C 365.066 111.132 366.909 111.476 368.619 112.191 Z M 365.076 121.467 C 366.12 120.384 366.12 118.668 365.076 117.585 C 364.42 117.087 363.605 116.848 362.786 116.913 L 360.068 116.913 L 360.068 122.088 L 362.786 122.088 C 363.599 122.168 364.413 121.948 365.076 121.467 Z" style=""/>
      <path class="txt" d="M 375.942 111.182 L 383.29 111.182 L 383.29 122.722 L 390.935 111.182 L 397.972 111.182 L 397.972 133.368 L 390.611 133.368 L 390.611 121.855 L 383.005 133.368 L 375.942 133.368 L 375.942 111.182 Z" style=""/>
      <path class="txt" d="M 402.215 111.182 L 409.564 111.182 L 409.564 122.722 L 417.197 111.182 L 424.234 111.182 L 424.234 133.368 L 416.886 133.368 L 416.886 121.855 L 409.279 133.368 L 402.215 133.368 L 402.215 111.182 Z" style=""/>
    </g>
  </g>
</svg>
