<svg viewBox="189.521 26.098 226.479 110.426" xmlns="http://www.w3.org/2000/svg" fill="currentColor">
 <path d="M223.69,54.22v7.84H218.4V58.7H204.64V41.56h5.68V54.22h5.44V41.56h5.68V54.22Z"/>
 <path d="M240.13,54.34V58.7H225.87V41.56h13.94v4.36h-8.25v2h7.25v4.16h-7.25v2.25Z"/>
 <path d="M259.63,41.56V58.7h-5.78V52.38h-5.34V58.7h-5.78V41.56h5.78v6.07h5.34V41.56Z"/>
 <path d="M277.51,46h-5V58.7h-5.68V46h-5V41.56h15.73Z"/>
 <path d="M292.06,42.34a6,6,0,0,1,2.72,2.26,6.18,6.18,0,0,1-2.72,9.11,10.13,10.13,0,0,1-4.14.78h-2.47V58.7h-5.78V41.56h8.25A10.13,10.13,0,0,1,292.06,42.34Zm-2.74,7.17a2.16,2.16,0,0,0,0-3,2.58,2.58,0,0,0-1.77-.52h-2.1v4h2.1A2.58,2.58,0,0,0,289.32,49.51Z"/>
 <path d="M208.36,87.35a8.6,8.6,0,0,1-3.42-3.18,9.39,9.39,0,0,1,0-9.29,8.6,8.6,0,0,1,3.42-3.18,10.41,10.41,0,0,1,4.9-1.14,10.92,10.92,0,0,1,4.46.88A8.35,8.35,0,0,1,221,74l-3.65,3.26a4.68,4.68,0,0,0-3.75-2,3.83,3.83,0,0,0-2.91,1.16,5,5,0,0,0,0,6.25,3.79,3.79,0,0,0,2.91,1.16,4.68,4.68,0,0,0,3.75-2L221,85.06a8.35,8.35,0,0,1-3.23,2.55,10.76,10.76,0,0,1-4.46.88A10.41,10.41,0,0,1,208.36,87.35Z"/>
 <path d="M226.31,87.34a8.8,8.8,0,0,1,0-15.63,11.34,11.34,0,0,1,9.95,0,8.8,8.8,0,0,1,0,15.63,11.34,11.34,0,0,1-9.95,0Zm6.92-4a3.74,3.74,0,0,0,1.39-1.5,5.28,5.28,0,0,0,0-4.53,3.78,3.78,0,0,0-1.39-1.49,3.64,3.64,0,0,0-1.94-.53,3.7,3.7,0,0,0-1.95.53A3.75,3.75,0,0,0,228,77.26a5.19,5.19,0,0,0,0,4.53,3.63,3.63,0,0,0,3.33,2A3.64,3.64,0,0,0,233.23,83.29Z"/>
 <path d="M258.67,80.64a4,4,0,0,1,.76,2.49,4.29,4.29,0,0,1-1.82,3.64,8.63,8.63,0,0,1-5.16,1.33h-9.16V71H252a8.8,8.8,0,0,1,4.93,1.18,3.75,3.75,0,0,1,1.75,3.31,4,4,0,0,1-.57,2.15,4.43,4.43,0,0,1-1.63,1.52A4.51,4.51,0,0,1,258.67,80.64Zm-9.7-3.1h2.45c1,0,1.42-.41,1.42-1.25s-.47-1.3-1.42-1.3H249Zm4.63,5.15c0-.89-.47-1.33-1.42-1.33H249v2.7h3.21C253.13,84.06,253.6,83.6,253.6,82.69Z"/>
 <path d="M274.13,71.74a6.17,6.17,0,0,1,0,11.36,10,10,0,0,1-4.14.79h-2.47V88.1h-5.78V71H270A10,10,0,0,1,274.13,71.74Zm-2.74,7.16a2.18,2.18,0,0,0,0-3,2.58,2.58,0,0,0-1.77-.53h-2.1v4h2.1A2.58,2.58,0,0,0,271.39,78.9Z"/>
 <path d="M294.05,83.74V88.1H279.79V71h13.94v4.36h-8.26v2h7.25v4.17h-7.25v2.25Z"/>
 <path d="M312,88.1l-.05-7.81-3.72,6.27h-2.55l-3.72-6V88.1h-5.27V71h4.76L307,80.09,312.42,71h4.75l.05,17.15Z"/>
 <path d="M334.73,83.74V88.1H320.48V71h13.94v4.36h-8.26v2h7.25v4.17h-7.25v2.25Z"/>
 <path d="M354.23,71V88.1h-5.78V81.78h-5.34V88.1h-5.78V71h5.78V77h5.34V71Z"/>
 <path d="M374.42,71V88.1h-5.78V81.78H363.3V88.1h-5.78V71h5.78V77h5.34V71Z"/>
 <path d="M381.45,87.34a8.79,8.79,0,0,1,0-15.63,11.31,11.31,0,0,1,9.94,0,8.79,8.79,0,0,1,0,15.63,11.31,11.31,0,0,1-9.94,0Zm6.92-4a3.72,3.72,0,0,0,1.38-1.5,5.19,5.19,0,0,0,0-4.53,3.75,3.75,0,0,0-1.38-1.49,3.85,3.85,0,0,0-3.9,0,3.75,3.75,0,0,0-1.38,1.49,5.28,5.28,0,0,0,0,4.53,3.8,3.8,0,0,0,5.28,1.5Z"/>
 <path d="M398.42,71h5.69v8.92L410,71h5.44V88.1h-5.68V79.21l-5.88,8.89h-5.47Zm4.41-2a3.91,3.91,0,0,1-1.25-3.16h3.85a1.77,1.77,0,0,0,.33,1.2,1.53,1.53,0,0,0,1.16.37,1.61,1.61,0,0,0,1.19-.37,1.67,1.67,0,0,0,.36-1.2h3.84A3.86,3.86,0,0,1,411,68.92a6.47,6.47,0,0,1-4.12,1A6.37,6.37,0,0,1,402.83,68.92Z"/>
 <path d="M221.22,100.35V117.5h-5.68V104.83h-5.22V117.5h-5.68V100.35Z"/>
 <path d="M238.76,113.14v4.36H224.5V100.35h13.94v4.36h-8.25v2h7.25v4.16h-7.25v2.26Z"/>
 <path d="M260.58,113v7.84h-5.29V117.5h-9.75v3.35h-5.29V113h.49c1,0,1.7-.63,2.11-1.88a22.29,22.29,0,0,0,.78-5.56l.2-5.22h14.5V113Zm-12.32-2.75a8.06,8.06,0,0,1-.9,2.75h5.29v-8.18h-4l0,1.23A31.75,31.75,0,0,1,248.26,110.26Z"/>
 <path d="M262.76,100.35h5.69v8.92l5.9-8.92h5.44V117.5h-5.68v-8.9l-5.88,8.9h-5.47Z"/>
 <path d="M295.17,114.51h-6.51l-1.15,3h-5.88l7.49-17.15h5.68l7.5,17.15h-6Zm-1.59-4.17L291.92,106l-1.67,4.31Z"/>
 <path d="M317.88,104.83h-5V117.5h-5.68V104.83h-5v-4.48h15.73Z"/>
 <path d="M332.43,101.13a6.18,6.18,0,0,1,0,11.37,10.13,10.13,0,0,1-4.14.78h-2.47v4.22H320V100.35h8.25A10.13,10.13,0,0,1,332.43,101.13Zm-2.74,7.17a2.16,2.16,0,0,0,0-3,2.58,2.58,0,0,0-1.77-.52h-2.1v4h2.1A2.58,2.58,0,0,0,329.69,108.3Z"/>
 <path d="M338.09,100.35h5.68v8.92l5.91-8.92h5.44V117.5h-5.69v-8.9l-5.88,8.9h-5.46Z"/>
 <path d="M358.4,100.35h5.68v8.92l5.9-8.92h5.44V117.5h-5.68v-8.9l-5.88,8.9H358.4Z"/>
</svg>
