<svg width="400" height="250" viewBox="0 0 400 250" fill="none" xmlns="http://www.w3.org/2000/svg">
<g clip-path="url(#clip0_1_908)">
<g clip-path="url(#clip1_1_908)">
<path opacity="0.15" d="M296.306 88.1652C296.306 88.1652 286.906 14.6097 231.445 67.4928C160.348 135.281 112.557 0.550316 59.8153 55.5461C31.0014 85.59 107.142 152.783 56.2908 188.144C5.43975 223.505 46.9942 249.977 46.9942 249.977H335.739C335.739 249.977 365.631 252.136 367.894 214.312C370.153 176.489 335.406 176.03 356.971 128.697C378.536 81.3647 303.083 118.292 296.306 88.1652Z" fill="url(#paint0_linear_1_908)"/>
<mask id="mask0_1_908" style="mask-type:alpha" maskUnits="userSpaceOnUse" x="31" y="42" width="337" height="208">
<path d="M296.306 88.1652C296.306 88.1652 286.906 14.6097 231.445 67.4928C160.348 135.281 112.557 0.550316 59.8153 55.5461C31.0014 85.59 107.142 152.783 56.2908 188.144C5.43975 223.505 46.9942 249.977 46.9942 249.977H335.739C335.739 249.977 365.631 252.136 367.894 214.312C370.153 176.489 335.406 176.03 356.971 128.697C378.536 81.3647 303.083 118.292 296.306 88.1652Z" fill="url(#paint1_linear_1_908)"/>
</mask>
<g mask="url(#mask0_1_908)">
<rect opacity="0.45" x="96" y="38" width="160" height="142" fill="url(#paint2_linear_1_908)"/>
<path opacity="0.45" d="M87.221 189.604H265.056L258.566 199.208C258.306 199.594 257.87 199.825 257.405 199.825H94.8719C94.4063 199.825 93.971 199.594 93.7102 199.208L87.221 189.604Z" fill="url(#paint3_linear_1_908)"/>
<rect opacity="0.45" x="77" y="185.516" width="198.275" height="2.04408" fill="url(#paint4_linear_1_908)"/>
<rect x="100.507" y="50.6072" width="151.262" height="3.06611" fill="white"/>
<rect x="100.507" y="60.8277" width="151.262" height="3.06611" fill="white"/>
<rect x="100.507" y="71.0482" width="151.262" height="3.06611" fill="white"/>
<rect x="100.507" y="81.2685" width="151.262" height="3.06611" fill="white"/>
<rect x="100.507" y="91.4888" width="151.262" height="3.06611" fill="white"/>
<rect x="100.507" y="101.709" width="151.262" height="3.06611" fill="white"/>
<rect x="100.507" y="111.93" width="151.262" height="3.06611" fill="white"/>
<rect x="100.507" y="122.15" width="151.262" height="3.06611" fill="white"/>
<rect x="100.507" y="132.37" width="151.262" height="3.06611" fill="white"/>
<rect x="100.507" y="55.7175" width="151.262" height="3.06611" fill="white"/>
<rect x="100.507" y="65.9378" width="151.262" height="3.06611" fill="white"/>
<rect x="100.507" y="76.1581" width="151.262" height="3.06611" fill="white"/>
<rect x="100.507" y="86.3786" width="151.262" height="3.06611" fill="white"/>
<rect x="100.507" y="96.5989" width="151.262" height="3.06611" fill="white"/>
<rect x="100.507" y="106.819" width="151.262" height="3.06611" fill="white"/>
<rect x="100.507" y="117.04" width="151.262" height="3.06611" fill="white"/>
<rect x="100.507" y="127.26" width="151.262" height="3.06611" fill="white"/>
<rect x="100.507" y="137.481" width="151.262" height="3.06611" fill="white"/>
<rect x="106.638" y="50.6072" width="1.02204" height="103.226" fill="url(#paint5_linear_1_908)"/>
<path d="M105.311 153.512C105.311 153.125 105.624 152.811 106.012 152.811H108.289C108.676 152.811 108.99 153.125 108.99 153.512V156.156H105.311V153.512Z" fill="url(#paint6_linear_1_908)"/>
<path d="M104.235 156.647C104.327 156.355 104.598 156.156 104.904 156.156H109.394C109.7 156.156 109.971 156.355 110.063 156.647L111.462 161.098C111.604 161.55 111.267 162.01 110.793 162.01H103.505C103.032 162.01 102.694 161.55 102.836 161.098L104.235 156.647Z" fill="url(#paint7_linear_1_908)"/>
</g>
<path d="M46.6279 249.528H321.769" stroke="#9CACCE" stroke-width="2" stroke-miterlimit="10"/>
<path d="M331.404 249.528H365.408" stroke="#9CACCE" stroke-width="2" stroke-miterlimit="10"/>
</g>
<path d="M134.634 127.65V123H152.604V127.65L140.342 142.444H152.816V147.094H134V142.444L146.262 127.65H134.634Z" fill="#9CACCE"/>
<path d="M157.423 152.959V150H169.051V152.959L161.228 162.47H169.262V165.428H157V162.47L164.822 152.959H157.423Z" fill="#9CACCE"/>
<path d="M155.067 249.677L254.498 249.405C255.226 249.401 255.866 248.91 256.05 248.205L275.913 172.446C276.181 171.423 275.407 170.426 274.353 170.43L174.922 170.702C174.194 170.706 173.554 171.197 173.37 171.902L153.508 247.661C153.239 248.68 154.013 249.681 155.067 249.677Z" stroke="#9CACCE" stroke-width="2" stroke-miterlimit="10"/>
<path d="M294.284 249.677L194.923 249.405C194.179 249.401 193.528 248.899 193.34 248.178L173.497 172.484C173.225 171.442 174.01 170.422 175.091 170.426L274.453 170.698C275.196 170.702 275.848 171.204 276.035 171.925L295.879 247.615C296.151 248.661 295.361 249.68 294.284 249.677Z" fill="white" stroke="#9CACCE" stroke-width="2" stroke-miterlimit="10"/>
<path d="M280 188.592L275.777 172.395C275.589 171.684 274.938 171.189 274.194 171.185L175.327 171C174.251 170.996 173.806 171.71 174.078 172.738L178.443 189L280 188.592Z" fill="#BDC6DB"/>
<path d="M195.834 182.294C196.667 182.066 197.053 180.822 196.695 179.516C196.338 178.209 195.373 177.334 194.54 177.562C193.707 177.79 193.322 179.034 193.679 180.34C194.036 181.647 195.001 182.521 195.834 182.294Z" fill="white"/>
<path d="M225.913 182.295C226.746 182.068 227.132 180.824 226.774 179.517C226.417 178.211 225.452 177.336 224.62 177.564C223.787 177.791 223.401 179.035 223.758 180.342C224.115 181.648 225.08 182.523 225.913 182.295Z" fill="white"/>
<path d="M255.996 182.296C256.829 182.068 257.215 180.824 256.857 179.518C256.5 178.211 255.535 177.336 254.703 177.564C253.87 177.792 253.484 179.036 253.841 180.342C254.198 181.649 255.163 182.523 255.996 182.296Z" fill="white"/>
<path d="M182.023 167.341C183.353 163.59 186.473 160.953 190.102 160.953C194.946 160.953 198.87 165.636 198.87 171.411C198.87 175.021 197.337 178.202 195.003 180.084" stroke="#9CACCE" stroke-width="2" stroke-miterlimit="10" stroke-linecap="round"/>
<path d="M212.003 167.341C213.333 163.59 216.452 160.953 220.081 160.953C224.925 160.953 228.849 165.636 228.849 171.411C228.849 175.021 227.316 178.202 224.983 180.084" stroke="#9CACCE" stroke-width="2" stroke-miterlimit="10" stroke-linecap="round"/>
<path d="M241.979 167.341C243.308 163.59 246.428 160.953 250.057 160.953C254.901 160.953 258.825 165.636 258.825 171.411C258.825 175.021 257.292 178.202 254.958 180.084" stroke="#9CACCE" stroke-width="2" stroke-miterlimit="10" stroke-linecap="round"/>
<path d="M206.719 229.166L206.072 226.699L206.72 229.164C206.72 229.164 206.72 229.164 206.72 229.165C206.728 229.195 206.735 229.225 206.743 229.255C206.735 229.226 206.727 229.197 206.719 229.167C206.719 229.167 206.719 229.167 206.719 229.166Z" fill="#9CACCE" stroke="#9CACCE" stroke-width="0.383222"/>
<path d="M224.06 229.166L223.413 226.699L224.061 229.164C224.061 229.164 224.061 229.164 224.061 229.165C224.068 229.195 224.076 229.225 224.084 229.255C224.076 229.226 224.068 229.197 224.06 229.167C224.06 229.167 224.06 229.167 224.06 229.166Z" fill="#9CACCE" stroke="#9CACCE" stroke-width="0.383222"/>
<path d="M241.4 229.166L240.751 226.689L241.401 229.164C241.402 229.164 241.402 229.164 241.402 229.165C241.409 229.195 241.417 229.226 241.425 229.256C241.417 229.226 241.409 229.197 241.401 229.167C241.401 229.167 241.4 229.167 241.4 229.166Z" fill="#9CACCE" stroke="#9CACCE" stroke-width="0.383222"/>
<path d="M258.737 229.166L258.093 226.707L258.738 229.164C258.738 229.164 258.738 229.164 258.739 229.165C258.746 229.195 258.754 229.225 258.761 229.255C258.753 229.226 258.745 229.196 258.738 229.167C258.737 229.167 258.737 229.167 258.737 229.166Z" fill="#9CACCE" stroke="#9CACCE" stroke-width="0.383222"/>
<path d="M276.078 229.166L275.434 226.707L276.079 229.164C276.079 229.164 276.079 229.164 276.079 229.165C276.087 229.195 276.095 229.225 276.102 229.255C276.094 229.226 276.086 229.196 276.078 229.167C276.078 229.167 276.078 229.167 276.078 229.166Z" fill="#9CACCE" stroke="#9CACCE" stroke-width="0.383222"/>
<mask id="path-45-inside-1_1_908" fill="white">
<path d="M189.113 201.64L233.464 201.506L244.55 201.467H255.637L266.723 201.536L272.269 201.571L277.81 201.64V201.678L272.269 201.743L266.723 201.782L255.637 201.851L244.55 201.847L233.464 201.812L189.113 201.678V201.64Z"/>
</mask>
<path d="M189.113 201.64L233.464 201.506L244.55 201.467H255.637L266.723 201.536L272.269 201.571L277.81 201.64V201.678L272.269 201.743L266.723 201.782L255.637 201.851L244.55 201.847L233.464 201.812L189.113 201.678V201.64Z" fill="#9CACCE"/>
<path d="M189.113 201.64L189.112 201.257L188.73 201.258V201.64H189.113ZM233.464 201.506L233.465 201.889L233.465 201.889L233.464 201.506ZM244.55 201.467V201.084L244.549 201.084L244.55 201.467ZM255.637 201.467L255.639 201.084H255.637V201.467ZM266.723 201.536L266.721 201.919L266.723 201.536ZM272.269 201.571L272.273 201.188L272.271 201.188L272.269 201.571ZM277.81 201.64H278.193V201.261L277.815 201.257L277.81 201.64ZM277.81 201.678L277.815 202.061L278.193 202.057V201.678H277.81ZM272.269 201.743L272.271 202.126L272.273 202.126L272.269 201.743ZM266.723 201.782L266.726 202.165L266.726 202.165L266.723 201.782ZM255.637 201.851L255.637 202.234L255.639 202.234L255.637 201.851ZM244.55 201.847L244.549 202.23L244.55 202.23L244.55 201.847ZM233.464 201.812L233.465 201.429L233.465 201.429L233.464 201.812ZM189.113 201.678H188.73V202.06L189.112 202.061L189.113 201.678ZM189.114 202.023L233.465 201.889L233.462 201.122L189.112 201.257L189.114 202.023ZM233.465 201.889L244.552 201.851L244.549 201.084L233.462 201.122L233.465 201.889ZM244.55 201.851H255.637V201.084H244.55V201.851ZM255.634 201.85L266.721 201.919L266.726 201.153L255.639 201.084L255.634 201.85ZM266.721 201.919L272.266 201.954L272.271 201.188L266.726 201.153L266.721 201.919ZM272.264 201.954L277.805 202.023L277.815 201.257L272.273 201.188L272.264 201.954ZM277.427 201.64V201.678H278.193V201.64H277.427ZM277.806 201.295L272.264 201.36L272.273 202.126L277.815 202.061L277.806 201.295ZM272.266 201.36L266.721 201.398L266.726 202.165L272.271 202.126L272.266 201.36ZM266.721 201.398L255.634 201.467L255.639 202.234L266.726 202.165L266.721 201.398ZM255.637 201.467L244.55 201.463L244.55 202.23L255.637 202.234L255.637 201.467ZM244.551 201.463L233.465 201.429L233.462 202.195L244.549 202.23L244.551 201.463ZM233.465 201.429L189.114 201.295L189.112 202.061L233.462 202.195L233.465 201.429ZM189.497 201.678V201.64H188.73V201.678H189.497Z" fill="#9CACCE" mask="url(#path-45-inside-1_1_908)"/>
<mask id="path-47-inside-2_1_908" fill="white">
<path d="M191.86 215.202L236.207 215.068L247.297 215.033L258.384 215.03L269.47 215.099L275.012 215.133L280.557 215.202V215.24L275.012 215.309L269.47 215.344L258.384 215.413H247.297L236.207 215.374L191.86 215.24V215.202Z"/>
</mask>
<path d="M191.86 215.202L236.207 215.068L247.297 215.033L258.384 215.03L269.47 215.099L275.012 215.133L280.557 215.202V215.24L275.012 215.309L269.47 215.344L258.384 215.413H247.297L236.207 215.374L191.86 215.24V215.202Z" fill="#9CACCE"/>
<path d="M191.86 215.202L191.859 214.819L191.477 214.82V215.202H191.86ZM236.207 215.068L236.208 215.451L236.208 215.451L236.207 215.068ZM247.297 215.033L247.297 214.65L247.296 214.65L247.297 215.033ZM258.384 215.03L258.386 214.646L258.384 214.646L258.384 215.03ZM269.47 215.099L269.473 214.715L269.47 215.099ZM275.012 215.133L275.017 214.75L275.014 214.75L275.012 215.133ZM280.557 215.202H280.94V214.824L280.562 214.819L280.557 215.202ZM280.557 215.24L280.562 215.624L280.94 215.619V215.24H280.557ZM275.012 215.309L275.014 215.693L275.017 215.692L275.012 215.309ZM269.47 215.344L269.473 215.727L269.47 215.344ZM258.384 215.413V215.796L258.386 215.796L258.384 215.413ZM247.297 215.413L247.296 215.796H247.297V215.413ZM236.207 215.374L236.208 214.991L236.208 214.991L236.207 215.374ZM191.86 215.24H191.477V215.622L191.859 215.624L191.86 215.24ZM191.862 215.585L236.208 215.451L236.206 214.685L191.859 214.819L191.862 215.585ZM236.208 215.451L247.298 215.417L247.296 214.65L236.206 214.685L236.208 215.451ZM247.297 215.417L258.384 215.413L258.384 214.646L247.297 214.65L247.297 215.417ZM258.382 215.413L269.468 215.482L269.473 214.715L258.386 214.646L258.382 215.413ZM269.468 215.482L275.009 215.516L275.014 214.75L269.473 214.715L269.468 215.482ZM275.007 215.516L280.552 215.585L280.562 214.819L275.017 214.75L275.007 215.516ZM280.174 215.202V215.24H280.94V215.202H280.174ZM280.552 214.857L275.007 214.926L275.017 215.692L280.562 215.624L280.552 214.857ZM275.009 214.926L269.468 214.961L269.473 215.727L275.014 215.693L275.009 214.926ZM269.468 214.961L258.382 215.03L258.386 215.796L269.473 215.727L269.468 214.961ZM258.384 215.03H247.297V215.796H258.384V215.03ZM247.299 215.03L236.208 214.991L236.206 215.758L247.296 215.796L247.299 215.03ZM236.208 214.991L191.862 214.857L191.859 215.624L236.206 215.758L236.208 214.991ZM192.244 215.24V215.202H191.477V215.24H192.244Z" fill="#9CACCE" mask="url(#path-47-inside-2_1_908)"/>
<mask id="path-49-inside-3_1_908" fill="white">
<path d="M195.19 228.768L239.537 228.634L250.627 228.596H261.714L272.801 228.665L278.342 228.699L283.887 228.768V228.806L278.342 228.875L272.801 228.91L261.714 228.979L250.627 228.975L239.537 228.94L195.19 228.806V228.768Z"/>
</mask>
<path d="M195.19 228.768L239.537 228.634L250.627 228.596H261.714L272.801 228.665L278.342 228.699L283.887 228.768V228.806L278.342 228.875L272.801 228.91L261.714 228.979L250.627 228.975L239.537 228.94L195.19 228.806V228.768Z" fill="#9CACCE"/>
<path d="M195.19 228.768L195.189 228.385L194.807 228.386V228.768H195.19ZM239.537 228.634L239.538 229.017L239.538 229.017L239.537 228.634ZM250.627 228.596V228.212L250.626 228.212L250.627 228.596ZM261.714 228.596L261.716 228.212H261.714V228.596ZM272.801 228.665L272.803 228.281L272.801 228.665ZM278.342 228.699L278.347 228.316L278.344 228.316L278.342 228.699ZM283.887 228.768H284.27V228.39L283.892 228.385L283.887 228.768ZM283.887 228.806L283.892 229.19L284.27 229.185V228.806H283.887ZM278.342 228.875L278.344 229.259L278.347 229.259L278.342 228.875ZM272.801 228.91L272.803 229.293L272.801 228.91ZM261.714 228.979L261.714 229.362L261.716 229.362L261.714 228.979ZM250.627 228.975L250.626 229.358L250.627 229.358L250.627 228.975ZM239.537 228.94L239.538 228.557L239.538 228.557L239.537 228.94ZM195.19 228.806H194.807V229.188L195.189 229.19L195.19 228.806ZM195.192 229.151L239.538 229.017L239.536 228.251L195.189 228.385L195.192 229.151ZM239.538 229.017L250.629 228.979L250.626 228.212L239.536 228.251L239.538 229.017ZM250.627 228.979H261.714V228.212H250.627V228.979ZM261.712 228.979L272.798 229.048L272.803 228.281L261.716 228.212L261.712 228.979ZM272.798 229.048L278.34 229.082L278.344 228.316L272.803 228.281L272.798 229.048ZM278.337 229.082L283.882 229.151L283.892 228.385L278.347 228.316L278.337 229.082ZM283.504 228.768V228.806H284.27V228.768H283.504ZM283.882 228.423L278.337 228.492L278.347 229.259L283.892 229.19L283.882 228.423ZM278.34 228.492L272.798 228.527L272.803 229.293L278.344 229.259L278.34 228.492ZM272.798 228.527L261.712 228.596L261.716 229.362L272.803 229.293L272.798 228.527ZM261.714 228.596L250.627 228.592L250.627 229.358L261.714 229.362L261.714 228.596ZM250.629 228.592L239.538 228.557L239.536 229.324L250.626 229.358L250.629 228.592ZM239.538 228.557L195.192 228.423L195.189 229.19L239.536 229.324L239.538 228.557ZM195.574 228.806V228.768H194.807V228.806H195.574Z" fill="#9CACCE" mask="url(#path-49-inside-3_1_908)"/>
<path d="M120.244 248.984H106.023C105.647 248.984 105.321 248.735 105.222 248.374L99.2091 226.611C99.0635 226.082 99.462 225.557 100.01 225.557H126.253C126.805 225.557 127.203 226.082 127.054 226.611L121.041 248.374C120.945 248.735 120.62 248.984 120.244 248.984Z" fill="white" stroke="#9CACCE" stroke-width="2" stroke-miterlimit="10"/>
<path d="M117.163 225.557C117.163 225.557 116.818 216.218 124.252 206.879" stroke="#9CACCE" stroke-width="1.14967" stroke-miterlimit="10"/>
<path d="M99.1787 211.42C107.717 208.09 108.859 225.557 108.859 225.557" stroke="#9CACCE" stroke-width="1.14967" stroke-miterlimit="10"/>
<path d="M112.821 225.557L111.399 212.953" stroke="#9CACCE" stroke-width="1.14967" stroke-miterlimit="10"/>
<path d="M119.354 209.197L119.356 209.195C119.427 209.092 119.504 208.989 119.586 208.88C119.607 208.853 119.628 208.825 119.649 208.797C121.373 206.586 123.356 204.791 126.013 203.935C128.645 203.088 131.967 203.155 136.398 204.704C135.17 204.726 133.116 204.872 131.268 205.515C129.354 206.18 127.607 207.402 127.297 209.623L127.297 209.624C127.003 211.754 126.425 213.211 125.687 214.162C124.953 215.108 124.053 215.565 123.083 215.687C119.591 216.125 117.308 212.092 119.354 209.197Z" fill="#C9D3E8" stroke="#9CACCE" stroke-width="0.383222"/>
<path d="M111.05 193.638C111.053 193.913 111.059 194.272 111.07 194.694C111.097 195.706 111.155 197.082 111.278 198.531C111.401 199.979 111.589 201.506 111.877 202.821C112.164 204.125 112.556 205.257 113.111 205.883C113.598 206.435 113.925 207.222 114.088 208.1C114.251 208.977 114.248 209.93 114.086 210.803C113.924 211.677 113.606 212.456 113.153 212.995C112.704 213.529 112.127 213.825 111.42 213.762C110.73 213.7 109.906 213.078 109.171 211.939C108.443 210.811 107.828 209.216 107.54 207.297C106.981 203.585 107.646 198.676 111.05 193.638Z" fill="#C9D3E8" stroke="#9CACCE" stroke-width="0.383222"/>
<path d="M97.4954 210.301L97.4955 210.301C99.01 209.83 99.9986 210.118 100.508 210.764C101.029 211.423 101.117 212.534 100.645 213.85C99.7205 216.431 96.6812 219.65 91.1492 221.179C91.1503 221.137 91.1518 221.089 91.1538 221.036C91.1633 220.782 91.1842 220.416 91.2297 219.971C91.3209 219.079 91.5104 217.87 91.9035 216.6C92.6913 214.053 94.2823 211.298 97.4954 210.301Z" fill="#C9D3E8" stroke="#9CACCE" stroke-width="0.383222"/>
</g>
<defs>
<linearGradient id="paint0_linear_1_908" x1="31" y1="42" x2="175.12" y2="330.928" gradientUnits="userSpaceOnUse">
<stop stop-color="#AACBFA"/>
<stop offset="1" stop-color="#C4DFFB"/>
</linearGradient>
<linearGradient id="paint1_linear_1_908" x1="31" y1="42" x2="175.12" y2="330.928" gradientUnits="userSpaceOnUse">
<stop stop-color="#AACBFA"/>
<stop offset="1" stop-color="#C4DFFB"/>
</linearGradient>
<linearGradient id="paint2_linear_1_908" x1="-52.5" y1="335" x2="80.4134" y2="-5.11702" gradientUnits="userSpaceOnUse">
<stop stop-color="#C5D2EC"/>
<stop offset="0.9964" stop-color="#F1F7FE"/>
</linearGradient>
<linearGradient id="paint3_linear_1_908" x1="-46.6003" y1="186.49" x2="32.4853" y2="362.77" gradientUnits="userSpaceOnUse">
<stop stop-color="#C5D2EC"/>
<stop offset="0.9964" stop-color="#F1F7FE"/>
</linearGradient>
<linearGradient id="paint4_linear_1_908" x1="103.039" y1="185.552" x2="104.184" y2="203.891" gradientUnits="userSpaceOnUse">
<stop stop-color="#B0BBCC"/>
<stop offset="1" stop-color="#8D9EB7"/>
</linearGradient>
<linearGradient id="paint5_linear_1_908" x1="105.869" y1="19.1479" x2="108.47" y2="19.1507" gradientUnits="userSpaceOnUse">
<stop stop-color="#B8C5E0"/>
<stop offset="0.9964" stop-color="#C9D8E8"/>
</linearGradient>
<linearGradient id="paint6_linear_1_908" x1="105.794" y1="152.869" x2="111.094" y2="153.832" gradientUnits="userSpaceOnUse">
<stop stop-color="#B0BBCC"/>
<stop offset="1" stop-color="#8D9EB7"/>
</linearGradient>
<linearGradient id="paint7_linear_1_908" x1="103.758" y1="156.257" x2="116.581" y2="159.586" gradientUnits="userSpaceOnUse">
<stop stop-color="#B0BBCC"/>
<stop offset="1" stop-color="#8D9EB7"/>
</linearGradient>
<clipPath id="clip0_1_908">
<rect width="400" height="250" fill="white"/>
</clipPath>
<clipPath id="clip1_1_908">
<rect width="337.31" height="208.104" fill="white" transform="translate(31 42)"/>
</clipPath>
</defs>
</svg>
