<?xml version="1.0" encoding="UTF-8"?> <svg xmlns="http://www.w3.org/2000/svg" viewBox="0 0 415.45 161.99"><defs><style>.cls-1{fill:#56554e;}.cls-2{fill:#bbd11c;}.cls-3{fill:#0d0d0d;}.cls-4{fill:#f9dbaa;}.cls-5{fill:#588c14;}</style></defs><g id="Слой_2" data-name="Слой 2"><g id="color_hor"><g id="background"><path class="cls-1" d="M172.35,153.33c3.8-18.57,3.22-61,.66-75.13-2-10.84-9.94-61.53-61.28-66.6a2.4,2.4,0,0,0-2.51,1.54,28.9,28.9,0,0,1-1.73,3.75c-2.57,4.65-9,14.76-12.39,19.41a3.9,3.9,0,0,1-4.55,1.12,93.71,93.71,0,0,1-15.7-11,25.55,25.55,0,0,1-6.15-7.3,2.41,2.41,0,0,0-3.07-1.11C23.47,35.68,14.48,89.42,17.53,153.33Z"></path></g><path id="heart" class="cls-2" d="M103.86,4.7A7,7,0,0,0,95.53.2c-3.3.76-5.41,3.25-6.85,6.11-3-1.31-6.25-2.16-9.48-1.23-3.72,1.06-6.65,4.1-6.58,8.12s2.73,7.27,5.67,9.83a69.33,69.33,0,0,0,11.51,8,2.87,2.87,0,0,0,3.35-.82c2.51-3.41,7.19-10.82,9.08-14.24S105.21,8.59,103.86,4.7Z"></path><path id="line" class="cls-3" d="M185.11,162H4.33a4.33,4.33,0,1,1,0-8.66H185.11a4.33,4.33,0,1,1,0,8.66Z"></path><path class="cls-3" d="M75.09,59c-3.69,0-3.7,5.73,0,5.73S78.78,59,75.09,59Z"></path><path class="cls-3" d="M89.05,63.09c-2-2.61-4.71-4.08-9.22-4.59A.77.77,0,0,0,79,59.67a4,4,0,0,1-.3,4.48c-.79.94.73,1.79,1.15,2.11a2.89,2.89,0,0,1,.94,3.44,5.29,5.29,0,0,1-1,1.71c-.65.58-1.28,1.18-1.87,1.81l-.72.62c-2.95,2.59-5,6.06-4.62,10.21a15.3,15.3,0,0,0,1.75,6c.4.84,1.62.36,1.65-.45a10.11,10.11,0,0,1,2.55-6.76c1.8-2.12,4.43-3.24,6.64-4.84a13.8,13.8,0,0,0,5.11-6.45A9,9,0,0,0,89.05,63.09Z"></path><path class="cls-3" d="M67.48,68.42c2.71,3,3.7,6.89,4.14,10.79a14.33,14.33,0,0,0,2.15-7.61c0-7.61-5.8-13.79-12.95-13.79-5.1,0-9.14,3.15-11.31,7.71a21.8,21.8,0,0,1,5.55-1.06C59.43,64.19,64.4,65.05,67.48,68.42Z"></path><path class="cls-4" d="M69.08,73.65a12.73,12.73,0,0,0-3-4.78A10.77,10.77,0,0,0,60.7,66.2a20.71,20.71,0,0,0-11.86.94,19,19,0,0,0-1,4.46c-.86,9.12,5.8,13.79,13,13.79a12.58,12.58,0,0,0,9.63-4.57A26.92,26.92,0,0,0,69.08,73.65Zm-11.27-.58a.88.88,0,0,1,0-1.76A.88.88,0,0,1,57.81,73.07Zm7,1.53a.75.75,0,0,1-.47.47.65.65,0,0,1-.34.07h-.08a.89.89,0,0,1-.45-.12l-.17-.13a.86.86,0,0,1-.23-.39l0-.24a.88.88,0,0,1,.26-.62.57.57,0,0,1,.28-.18.66.66,0,0,1,.34-.08H64a.89.89,0,0,1,.45.12l.18.14a.84.84,0,0,1,.22.39l0,.23A.65.65,0,0,1,64.83,74.6Z"></path><path class="cls-5" d="M57.78,153.33c1.79-9.06,6.37-31.07,6.47-31.47,4.12-15.35,2.59-20.35,3.26-28.29a49.55,49.55,0,0,1,1.28-6.49.86.86,0,0,0-1.11-1,25.4,25.4,0,0,1-11.62.62c-3-.56-6.86-3.55-8.62-6.87-.25-.47-.87-.15-1.28.18a45.74,45.74,0,0,0-9.49,11.3c-5.13,8.73-10.23,25.23-11.42,29.55a103.17,103.17,0,0,0-4.64,23.44,67.86,67.86,0,0,0,0,9Z"></path><path class="cls-3" d="M89.66,91.49a15.34,15.34,0,0,1,5.09,3.59c-.9-4.94-4.24-8.51-9.19-8.51-3.8,0-7.24,2.73-8.8,6.29a21.29,21.29,0,0,1,3.45-1.71A12.86,12.86,0,0,1,89.66,91.49Z"></path><path class="cls-4" d="M86.66,91.94a11.25,11.25,0,0,0-5.64.32,23.75,23.75,0,0,0-4.88,2.52,9.59,9.59,0,0,0-.29,2.33c0,5.33,4.51,8.94,9.68,8.94a9.47,9.47,0,0,0,9.31-8.87A14,14,0,0,0,86.66,91.94Zm-2,3.85a.59.59,0,0,1-.18.29.75.75,0,0,1-.28.18.67.67,0,0,1-.34.07H83.8a.89.89,0,0,1-.45-.12l-.18-.13a1,1,0,0,1-.23-.39l0-.24a.68.68,0,0,1,.08-.34.64.64,0,0,1,.18-.28.59.59,0,0,1,.29-.18.63.63,0,0,1,.34-.08h.08a.83.83,0,0,1,.44.12l.18.14a.86.86,0,0,1,.23.39l0,.23A.66.66,0,0,1,84.68,95.79Zm4.13.59a.59.59,0,0,1-.18.29l-.08.08a1,1,0,0,1-.39.23l-.24,0a.86.86,0,0,1-.44-.12l-.18-.14a.59.59,0,0,1-.18-.29.63.63,0,0,1-.08-.34.68.68,0,0,1,.08-.34.61.61,0,0,1,.18-.28l.08-.08a.86.86,0,0,1,.39-.23l.24,0a.86.86,0,0,1,.44.12l.18.14a.57.57,0,0,1,.18.28.68.68,0,0,1,.08.34A.66.66,0,0,1,88.81,96.38Z"></path><path class="cls-2" d="M91.69,153.33c.87-6.79,1.11-12.69.65-26.58,0,0-1.22-16.42-1.75-18.9a.72.72,0,0,0-.86-.55c-2,.47-8.55,1.79-13.14-3a.72.72,0,0,0-1,0c-5.58,5.52-7.37,14.58-8.32,17.48a231,231,0,0,0-7.15,31.58Z"></path><path class="cls-3" d="M108.09,83.07a6.27,6.27,0,0,0-4.28-1.42c-2.12,0-7.21,2.51-7.79,8.67-.08.87.06,4.5,1.61,4.45.36,0,2.33-4.83,4.5-4.44.48.09.79.6,1,1a15.28,15.28,0,0,1,.72,3.15c0,.35.15,1.16.72.9,3-1.38,4.33-.83,5.32-1,1.2-.25,1-2.7,1-4.11C110.94,87.44,110.62,84.8,108.09,83.07Z"></path><path class="cls-3" d="M116,99.31a8.86,8.86,0,0,0-7.12-3.56,8.68,8.68,0,0,0-8.78,8.38A25.8,25.8,0,0,1,108.4,100C110.66,99.27,113.59,98.6,116,99.31Z"></path><path class="cls-4" d="M117.09,101.33a5.45,5.45,0,0,0-3.79-1,20.14,20.14,0,0,0-5.13,1.08,23.21,23.21,0,0,0-8,4.31,8.81,8.81,0,0,0,17.45-1.42A8.27,8.27,0,0,0,117.09,101.33Zm-8.17,3.9a.78.78,0,0,1-.46.46.68.68,0,0,1-.34.08H108a.89.89,0,0,1-.45-.12l-.18-.14a1,1,0,0,1-.23-.39l0-.23a.66.66,0,0,1,.08-.34.68.68,0,0,1,.18-.29.79.79,0,0,1,.29-.18A.63.63,0,0,1,108,104h.08a.83.83,0,0,1,.44.12l.18.13a.86.86,0,0,1,.23.39l0,.24A.68.68,0,0,1,108.92,105.23Zm3.23-.75a.59.59,0,0,1-.18.29l-.08.08a1,1,0,0,1-.39.23l-.24,0a.86.86,0,0,1-.44-.12l-.18-.14a.61.61,0,0,1-.18-.28.68.68,0,0,1-.08-.34.63.63,0,0,1,.08-.34.59.59,0,0,1,.18-.29l.08-.08a.86.86,0,0,1,.39-.23l.24,0a.86.86,0,0,1,.44.12l.18.14a.57.57,0,0,1,.18.28.68.68,0,0,1,.08.34A.66.66,0,0,1,112.15,104.48Z"></path><path class="cls-2" d="M121.94,153.33c1.08-6.81,1.88-16.06,1.62-20.77-.52-9.33-3.78-20.24-4.94-22.33a.34.34,0,0,0-.56-.07,11.13,11.13,0,0,1-13.19,3.73c-.5-.24-.78,0-1,.49a144.55,144.55,0,0,0-7.63,22.19c-.94,4.13-2.09,11.93-2.58,16.76Z"></path><path class="cls-2" d="M133.6,77.12A76,76,0,0,0,130.44,67a1.39,1.39,0,0,0-1.89-.7,9.91,9.91,0,0,1-5.42,1.11,1.37,1.37,0,0,0-1.55.84c-.59,1.52-1.11,4.18-1.62,9.38v.1c-.18,5.49.13,11.34,1.77,14.82a6.3,6.3,0,0,0,5.58,3.61C133.31,95.64,135.07,83.18,133.6,77.12Z"></path><path class="cls-3" d="M116.53,50.57c-1-1.58-4-1-5.62.17s-3.93,4.08-2.14,7.87c.23.5.55,1.17.78,1.68a2.68,2.68,0,0,1,.08,2,1.31,1.31,0,0,0,.25,1.29c.48.46,1.06.18,1.49-.17a5,5,0,0,0,1.35-5.79c-.23-.54-1-1.07-.16-1.41.56-.22,1.55-.22,2-.67s.33-2.6,2.05-4.17C116.91,51.09,116.68,50.81,116.53,50.57Z"></path><path class="cls-4" d="M131.63,56.08a7.9,7.9,0,1,0-6.45,9.2A7.94,7.94,0,0,0,131.63,56.08Zm-8.61.61a.94.94,0,0,1-.13.44l-.13.18a.86.86,0,0,1-.39.23l-.24,0a.68.68,0,0,1-.34-.08.78.78,0,0,1-.46-.46.68.68,0,0,1-.08-.34V56.6a.88.88,0,0,1,.12-.44l.14-.18a1,1,0,0,1,.39-.23l.23,0a.66.66,0,0,1,.34.08.68.68,0,0,1,.29.18.79.79,0,0,1,.18.29.73.73,0,0,1,.08.33Zm3.31-.09a.86.86,0,0,1-.12.44l-.14.18a1,1,0,0,1-.38.23l-.24,0a.68.68,0,0,1-.34-.08.57.57,0,0,1-.28-.18.88.88,0,0,1-.26-.62v-.09a.86.86,0,0,1,.12-.44l.14-.18a.86.86,0,0,1,.39-.23l.23,0a.66.66,0,0,1,.34.08.57.57,0,0,1,.28.18.88.88,0,0,1,.26.62Z"></path><path class="cls-3" d="M120.37,40.51a30.82,30.82,0,0,1,20.85-7.7C137.48,28,131,24.94,125.33,26.67,118,28.92,114.55,36.51,116.17,44a6.66,6.66,0,0,0,.26.9,14.67,14.67,0,0,1,1.37-1.77A28.67,28.67,0,0,1,120.37,40.51Z"></path><path class="cls-4" d="M143.72,37.54a10,10,0,0,0-1.3-2.95,28.5,28.5,0,0,0-4.62.09,29,29,0,0,0-11.51,3.73A28.19,28.19,0,0,0,121.37,42a26.38,26.38,0,0,0-2.1,2.13c-.58.65-1.74,1.57-1.7,2.49,0,.4,1.15,1.34,1.61,1.76a1.33,1.33,0,0,0,1.4.2,12.59,12.59,0,0,1,3.51-.79c2.82-.09,7.66,2.31,9,6.53h0a.86.86,0,0,0,.93.62,13.06,13.06,0,0,0,2.08-.46C143.38,52.22,145.13,44.33,143.72,37.54Zm-16.26,6.25a.61.61,0,0,1-.18.28.57.57,0,0,1-.28.18.68.68,0,0,1-.34.08h-.09a.86.86,0,0,1-.44-.12l-.18-.14a1,1,0,0,1-.23-.39l0-.23a.63.63,0,0,1,.08-.34.59.59,0,0,1,.18-.29.64.64,0,0,1,.28-.18.68.68,0,0,1,.34-.08h.09a.86.86,0,0,1,.44.12l.18.14a.86.86,0,0,1,.23.39l0,.24A.68.68,0,0,1,127.46,43.79ZM134,40.67a.78.78,0,0,1-.46.46.68.68,0,0,1-.34.08h-.09a.86.86,0,0,1-.44-.12l-.18-.14a1,1,0,0,1-.23-.39l0-.23a.66.66,0,0,1,.08-.34.59.59,0,0,1,.18-.29.75.75,0,0,1,.28-.18.81.81,0,0,1,.34-.08h.09a1,1,0,0,1,.44.13l.18.13a.86.86,0,0,1,.23.39l0,.24A.68.68,0,0,1,134,40.67Z"></path><path class="cls-5" d="M124,153.33h45a121.09,121.09,0,0,0,2.18-17,211.7,211.7,0,0,0-1.47-37c-5.64-36.32-18.52-56.27-22-58-.62-.3-.9.35-.94.6-2.11,14.2-11,18.9-13.42,21.11a2.78,2.78,0,0,0-.89,2.94c2.11,5.62,5.51,11.84,2.45,24.73a.11.11,0,0,0,.17.12,8.44,8.44,0,0,1,3.42-1,5.34,5.34,0,0,1,2.73.44,4.6,4.6,0,0,1,1.9,2,8.7,8.7,0,0,1,.52,5.2,19.2,19.2,0,0,1-1.51,5.36,24.44,24.44,0,0,1-3.16,4.78c-.44.56-1.19-.76-.76-1.31l2.49-4.31a14.89,14.89,0,0,0,1.42-5.09,5.1,5.1,0,0,0-.79-3.84,3.62,3.62,0,0,0-3.1-1.5c-1.41,0-3.21.51-3.92,1.46-.18.25-1.6,2.19-1.75,2.44-1.27,2-3.52,3.4-4.6,6-1.52,3.74-3.43,11-2.44,27.36,0,.17.18,1.57.19,2.07a99.07,99.07,0,0,1-.48,11.08C124.85,146.15,124.35,150.33,124,153.33Z"></path><path d="M223.69,54.22v7.84H218.4V58.7H204.64V41.56h5.68V54.22h5.44V41.56h5.68V54.22Z"></path><path d="M240.13,54.34V58.7H225.87V41.56h13.94v4.36h-8.25v2h7.25v4.16h-7.25v2.25Z"></path><path d="M259.63,41.56V58.7h-5.78V52.38h-5.34V58.7h-5.78V41.56h5.78v6.07h5.34V41.56Z"></path><path d="M277.51,46h-5V58.7h-5.68V46h-5V41.56h15.73Z"></path><path d="M292.06,42.34a6,6,0,0,1,2.72,2.26,6.18,6.18,0,0,1-2.72,9.11,10.13,10.13,0,0,1-4.14.78h-2.47V58.7h-5.78V41.56h8.25A10.13,10.13,0,0,1,292.06,42.34Zm-2.74,7.17a2.16,2.16,0,0,0,0-3,2.58,2.58,0,0,0-1.77-.52h-2.1v4h2.1A2.58,2.58,0,0,0,289.32,49.51Z"></path><path d="M208.36,87.35a8.6,8.6,0,0,1-3.42-3.18,9.39,9.39,0,0,1,0-9.29,8.6,8.6,0,0,1,3.42-3.18,10.41,10.41,0,0,1,4.9-1.14,10.92,10.92,0,0,1,4.46.88A8.35,8.35,0,0,1,221,74l-3.65,3.26a4.68,4.68,0,0,0-3.75-2,3.83,3.83,0,0,0-2.91,1.16,5,5,0,0,0,0,6.25,3.79,3.79,0,0,0,2.91,1.16,4.68,4.68,0,0,0,3.75-2L221,85.06a8.35,8.35,0,0,1-3.23,2.55,10.76,10.76,0,0,1-4.46.88A10.41,10.41,0,0,1,208.36,87.35Z"></path><path d="M226.31,87.34a8.8,8.8,0,0,1,0-15.63,11.34,11.34,0,0,1,9.95,0,8.8,8.8,0,0,1,0,15.63,11.34,11.34,0,0,1-9.95,0Zm6.92-4a3.74,3.74,0,0,0,1.39-1.5,5.28,5.28,0,0,0,0-4.53,3.78,3.78,0,0,0-1.39-1.49,3.64,3.64,0,0,0-1.94-.53,3.7,3.7,0,0,0-1.95.53A3.75,3.75,0,0,0,228,77.26a5.19,5.19,0,0,0,0,4.53,3.63,3.63,0,0,0,3.33,2A3.64,3.64,0,0,0,233.23,83.29Z"></path><path d="M258.67,80.64a4,4,0,0,1,.76,2.49,4.29,4.29,0,0,1-1.82,3.64,8.63,8.63,0,0,1-5.16,1.33h-9.16V71H252a8.8,8.8,0,0,1,4.93,1.18,3.75,3.75,0,0,1,1.75,3.31,4,4,0,0,1-.57,2.15,4.43,4.43,0,0,1-1.63,1.52A4.51,4.51,0,0,1,258.67,80.64Zm-9.7-3.1h2.45c1,0,1.42-.41,1.42-1.25s-.47-1.3-1.42-1.3H249Zm4.63,5.15c0-.89-.47-1.33-1.42-1.33H249v2.7h3.21C253.13,84.06,253.6,83.6,253.6,82.69Z"></path><path d="M274.13,71.74a6.17,6.17,0,0,1,0,11.36,10,10,0,0,1-4.14.79h-2.47V88.1h-5.78V71H270A10,10,0,0,1,274.13,71.74Zm-2.74,7.16a2.18,2.18,0,0,0,0-3,2.58,2.58,0,0,0-1.77-.53h-2.1v4h2.1A2.58,2.58,0,0,0,271.39,78.9Z"></path><path d="M294.05,83.74V88.1H279.79V71h13.94v4.36h-8.26v2h7.25v4.17h-7.25v2.25Z"></path><path d="M312,88.1l-.05-7.81-3.72,6.27h-2.55l-3.72-6V88.1h-5.27V71h4.76L307,80.09,312.42,71h4.75l.05,17.15Z"></path><path d="M334.73,83.74V88.1H320.48V71h13.94v4.36h-8.26v2h7.25v4.17h-7.25v2.25Z"></path><path d="M354.23,71V88.1h-5.78V81.78h-5.34V88.1h-5.78V71h5.78V77h5.34V71Z"></path><path d="M374.42,71V88.1h-5.78V81.78H363.3V88.1h-5.78V71h5.78V77h5.34V71Z"></path><path d="M381.45,87.34a8.79,8.79,0,0,1,0-15.63,11.31,11.31,0,0,1,9.94,0,8.79,8.79,0,0,1,0,15.63,11.31,11.31,0,0,1-9.94,0Zm6.92-4a3.72,3.72,0,0,0,1.38-1.5,5.19,5.19,0,0,0,0-4.53,3.75,3.75,0,0,0-1.38-1.49,3.85,3.85,0,0,0-3.9,0,3.75,3.75,0,0,0-1.38,1.49,5.28,5.28,0,0,0,0,4.53,3.8,3.8,0,0,0,5.28,1.5Z"></path><path d="M398.42,71h5.69v8.92L410,71h5.44V88.1h-5.68V79.21l-5.88,8.89h-5.47Zm4.41-2a3.91,3.91,0,0,1-1.25-3.16h3.85a1.77,1.77,0,0,0,.33,1.2,1.53,1.53,0,0,0,1.16.37,1.61,1.61,0,0,0,1.19-.37,1.67,1.67,0,0,0,.36-1.2h3.84A3.86,3.86,0,0,1,411,68.92a6.47,6.47,0,0,1-4.12,1A6.37,6.37,0,0,1,402.83,68.92Z"></path><path d="M221.22,100.35V117.5h-5.68V104.83h-5.22V117.5h-5.68V100.35Z"></path><path d="M238.76,113.14v4.36H224.5V100.35h13.94v4.36h-8.25v2h7.25v4.16h-7.25v2.26Z"></path><path d="M260.58,113v7.84h-5.29V117.5h-9.75v3.35h-5.29V113h.49c1,0,1.7-.63,2.11-1.88a22.29,22.29,0,0,0,.78-5.56l.2-5.22h14.5V113Zm-12.32-2.75a8.06,8.06,0,0,1-.9,2.75h5.29v-8.18h-4l0,1.23A31.75,31.75,0,0,1,248.26,110.26Z"></path><path d="M262.76,100.35h5.69v8.92l5.9-8.92h5.44V117.5h-5.68v-8.9l-5.88,8.9h-5.47Z"></path><path d="M295.17,114.51h-6.51l-1.15,3h-5.88l7.49-17.15h5.68l7.5,17.15h-6Zm-1.59-4.17L291.92,106l-1.67,4.31Z"></path><path d="M317.88,104.83h-5V117.5h-5.68V104.83h-5v-4.48h15.73Z"></path><path d="M332.43,101.13a6.18,6.18,0,0,1,0,11.37,10.13,10.13,0,0,1-4.14.78h-2.47v4.22H320V100.35h8.25A10.13,10.13,0,0,1,332.43,101.13Zm-2.74,7.17a2.16,2.16,0,0,0,0-3,2.58,2.58,0,0,0-1.77-.52h-2.1v4h2.1A2.58,2.58,0,0,0,329.69,108.3Z"></path><path d="M338.09,100.35h5.68v8.92l5.91-8.92h5.44V117.5h-5.69v-8.9l-5.88,8.9h-5.46Z"></path><path d="M358.4,100.35h5.68v8.92l5.9-8.92h5.44V117.5h-5.68v-8.9l-5.88,8.9H358.4Z"></path></g></g></svg> 