<svg xmlns="http://www.w3.org/2000/svg" viewBox="0 0 20 20" >
  <path d="M8.53691 11.2933C9.70025 12.4734 11.1079 13.3846 12.6609 13.9627L14.7619 12.2908C14.8241 12.2479 14.898 12.225 14.9736 12.225C15.0493 12.225 15.1231 12.2479 15.1854 12.2908L19.0864 14.8042C19.2345 14.8933 19.3599 15.0155 19.4526 15.1613C19.5454 15.3072 19.6029 15.4725 19.6208 15.6444C19.6386 15.8163 19.6162 15.99 19.5554 16.1517C19.4946 16.3135 19.397 16.4589 19.2703 16.5764L17.4424 18.382C17.1807 18.6407 16.8589 18.8305 16.5059 18.9346C16.1529 19.0386 15.7797 19.0537 15.4195 18.9783C11.8262 18.2362 8.51414 16.4981 5.86192 13.9627C3.26855 11.4021 1.47396 8.14396 0.695825 4.58351C0.618956 4.22887 0.635 3.86039 0.742402 3.51377C0.849804 3.16716 1.04492 2.85416 1.30885 2.60512L3.20364 0.777208C3.32089 0.656714 3.46388 0.564308 3.62191 0.506909C3.77994 0.44951 3.9489 0.428604 4.11615 0.445758C4.2834 0.462912 4.4446 0.517681 4.58769 0.605963C4.73077 0.694246 4.85203 0.813754 4.94239 0.955541L7.53936 4.80642C7.58416 4.86689 7.60834 4.94016 7.60834 5.01541C7.60834 5.09066 7.58416 5.16392 7.53936 5.22439L5.82848 7.2808C6.42232 8.80273 7.34751 10.1734 8.53691 11.2933V11.2933Z" fill="#200952"></path>
</svg>
