<?xml version="1.0" encoding="UTF-8"?> <svg xmlns="http://www.w3.org/2000/svg" width="3173" height="115" viewBox="0 0 3173 115" fill="none"> <path d="M317.481 24.7595C211.721 -8.16317 105.961 -8.16317 0.201416 24.7595V114.019H3173V24.7595C3067.24 57.6822 2961.48 57.6822 2855.72 24.7595C2749.96 -8.16317 2644.2 -8.16317 2538.44 24.7595C2432.68 57.6822 2326.92 57.6822 2221.16 24.7595C2115.4 -8.16317 2009.64 -8.16317 1903.88 24.7595C1798.12 57.6822 1692.36 57.6822 1586.6 24.7595C1480.84 -8.16317 1375.08 -8.16317 1269.32 24.7595C1163.56 57.6822 1057.8 57.6822 952.041 24.7595C846.281 -8.16317 740.521 -8.16317 634.761 24.7595C529.001 57.6822 423.241 57.6822 317.481 24.7595Z" fill="white"></path> </svg> 